<svg xmlns="http://www.w3.org/2000/svg" viewBox="0 0 800 450" font-family="Inter,Segoe UI,Arial,sans-serif">
<defs><linearGradient id="g" x1="0" y1="0" x2="1" y2="1"><stop offset="0" stop-color="#081a3a"/><stop offset="1" stop-color="#0f3a6b"/></linearGradient>
<filter id="s" x="-10%" y="-10%" width="120%" height="130%"><feDropShadow dx="0" dy="14" stdDeviation="16" flood-opacity=".35"/></filter></defs>
<rect width="800" height="450" fill="url(#g)"/>
<circle cx="700" cy="60" r="160" fill="#0a7cff" opacity=".18"/><circle cx="80" cy="420" r="120" fill="#fff" opacity=".06"/>
<g filter="url(#s)"><rect x="70" y="48" width="660" height="370" rx="14" fill="#fff"/></g>
<rect x="70" y="48" width="660" height="34" rx="14" fill="#eef1f6"/><rect x="70" y="68" width="660" height="14" fill="#eef1f6"/>
<circle cx="92" cy="65" r="5" fill="#ff6159"/><circle cx="110" cy="65" r="5" fill="#ffbd2e"/><circle cx="128" cy="65" r="5" fill="#28c941"/>
<rect x="150" y="56" width="300" height="18" rx="6" fill="#fff"/><text x="162" y="69" font-size="10.5" fill="#6b778c">botstudio.app / editor</text>
<text x="92" y="108" font-size="15" font-weight="700" fill="#0d1726">Bot Studio &#8212; drag &amp; drop</text>
<rect x="92" y="124" width="150" height="270" rx="10" fill="#f3f6fb" /><text x="106" y="148" font-size="11" font-weight="700" fill="#6b778c" text-anchor="start">Blocks</text><rect x="104" y="160" width="126" height="34" rx="8" fill="#fff" stroke="#0a7cff" stroke-width="1.5"/><circle cx="118" cy="177" r="5" fill="#0a7cff"/><text x="130" y="181" font-size="10.5" font-weight="600" fill="#0d1726" text-anchor="start">Message</text><rect x="104" y="204" width="126" height="34" rx="8" fill="#fff" stroke="#7c5cff" stroke-width="1.5"/><circle cx="118" cy="221" r="5" fill="#7c5cff"/><text x="130" y="225" font-size="10.5" font-weight="600" fill="#0d1726" text-anchor="start">Question</text><rect x="104" y="248" width="126" height="34" rx="8" fill="#fff" stroke="#f29900" stroke-width="1.5"/><circle cx="118" cy="265" r="5" fill="#f29900"/><text x="130" y="269" font-size="10.5" font-weight="600" fill="#0d1726" text-anchor="start">Condition</text><rect x="104" y="292" width="126" height="34" rx="8" fill="#fff" stroke="#12a36b" stroke-width="1.5"/><circle cx="118" cy="309" r="5" fill="#12a36b"/><text x="130" y="313" font-size="10.5" font-weight="600" fill="#0d1726" text-anchor="start">AI Reply</text><rect x="104" y="336" width="126" height="34" rx="8" fill="#fff" stroke="#e8453c" stroke-width="1.5"/><circle cx="118" cy="353" r="5" fill="#e8453c"/><text x="130" y="357" font-size="10.5" font-weight="600" fill="#0d1726" text-anchor="start">Payment</text><rect x="256" y="124" width="250" height="270" rx="10" fill="#fbfcfe" stroke="#e3e8f0" stroke-dasharray="4 4"/><rect x="301" y="150" width="160" height="40" rx="10" fill="#fff" stroke="#0a7cff" stroke-width="2"/><text x="381" y="175" font-size="11" font-weight="600" fill="#0d1726" text-anchor="middle">Welcome</text><path d="M381,190 V230" stroke="#b9c3d4" stroke-width="2"/><rect x="301" y="230" width="160" height="40" rx="10" fill="#fff" stroke="#7c5cff" stroke-width="2"/><text x="381" y="255" font-size="11" font-weight="600" fill="#0d1726" text-anchor="middle">Ask intent</text><path d="M381,270 V310" stroke="#b9c3d4" stroke-width="2"/><rect x="301" y="310" width="160" height="40" rx="10" fill="#fff" stroke="#12a36b" stroke-width="2"/><text x="381" y="335" font-size="11" font-weight="600" fill="#0d1726" text-anchor="middle">AI Reply</text><rect x="520" y="124" width="188" height="270" rx="14" fill="#0d1726" /><rect x="520" y="124" width="188" height="40" rx="14" fill="#0a7cff" /><rect x="520" y="150" width="188" height="14" rx="0" fill="#0a7cff" /><text x="536" y="149" font-size="11" font-weight="700" fill="#fff" text-anchor="start">Support Bot</text><rect x="532" y="176" width="130" height="30" rx="10" fill="#25324a" /><text x="542" y="195" font-size="9.5" font-weight="500" fill="#dbe4f0" text-anchor="start">Hi! How can I help?</text><rect x="570" y="214" width="126" height="30" rx="10" fill="#0a7cff" /><text x="580" y="233" font-size="9.5" font-weight="500" fill="#fff" text-anchor="start">Track my order</text><rect x="532" y="252" width="150" height="44" rx="10" fill="#25324a" /><text x="542" y="270" font-size="9.5" font-weight="500" fill="#dbe4f0" text-anchor="start">Sure, order #4821</text><text x="542" y="286" font-size="9.5" font-weight="500" fill="#dbe4f0" text-anchor="start">arrives tomorrow.</text><rect x="532" y="350" width="164" height="30" rx="15" fill="#25324a" /><text x="546" y="369" font-size="9.5" font-weight="500" fill="#7b889c" text-anchor="start">Type a message...</text>
</svg>