<svg xmlns="http://www.w3.org/2000/svg" viewBox="0 0 800 450" font-family="Inter,Segoe UI,Arial,sans-serif">
<defs><linearGradient id="g" x1="0" y1="0" x2="1" y2="1"><stop offset="0" stop-color="#2a0f1f"/><stop offset="1" stop-color="#6b1d43"/></linearGradient>
<filter id="s" x="-10%" y="-10%" width="120%" height="130%"><feDropShadow dx="0" dy="14" stdDeviation="16" flood-opacity=".35"/></filter></defs>
<rect width="800" height="450" fill="url(#g)"/>
<circle cx="700" cy="60" r="160" fill="#e2457a" opacity=".18"/><circle cx="80" cy="420" r="120" fill="#fff" opacity=".06"/>
<g filter="url(#s)"><rect x="70" y="48" width="660" height="370" rx="14" fill="#fff"/></g>
<rect x="70" y="48" width="660" height="34" rx="14" fill="#eef1f6"/><rect x="70" y="68" width="660" height="14" fill="#eef1f6"/>
<circle cx="92" cy="65" r="5" fill="#ff6159"/><circle cx="110" cy="65" r="5" fill="#ffbd2e"/><circle cx="128" cy="65" r="5" fill="#28c941"/>
<rect x="150" y="56" width="300" height="18" rx="6" fill="#fff"/><text x="162" y="69" font-size="10.5" fill="#6b778c">diamondrx.app / board</text>
<text x="92" y="108" font-size="15" font-weight="700" fill="#0d1726">DiamondRX &#183; Team Board</text>
<rect x="92" y="124" width="196" height="270" rx="10" fill="#f3f6fb" /><circle cx="108" cy="143" r="5" fill="#7b889c"/><text x="120" y="147" font-size="11.5" font-weight="700" fill="#0d1726" text-anchor="start">To do</text><text x="274" y="147" font-size="10" font-weight="600" fill="#7b889c" text-anchor="end">3</text><rect x="102" y="160" width="176" height="66" rx="8" fill="#fff" /><rect x="102" y="160" width="4" height="66" rx="2" fill="#7b889c" /><text x="114" y="182" font-size="10.5" font-weight="600" fill="#0d1726" text-anchor="start">Update pricing page</text><rect x="114" y="192" width="120" height="7" rx="3" fill="#dfe5ee" /><circle cx="122" cy="212" r="8" fill="#7c5cff"/><text x="264" y="216" font-size="9" font-weight="600" fill="#7b889c" text-anchor="end">Today</text><rect x="102" y="236" width="176" height="66" rx="8" fill="#fff" /><rect x="102" y="236" width="4" height="66" rx="2" fill="#7b889c" /><text x="114" y="258" font-size="10.5" font-weight="600" fill="#0d1726" text-anchor="start">Client onboarding</text><rect x="114" y="268" width="120" height="7" rx="3" fill="#dfe5ee" /><circle cx="122" cy="288" r="8" fill="#0a7cff"/><text x="264" y="292" font-size="9" font-weight="600" fill="#7b889c" text-anchor="end">Tue</text><rect x="102" y="312" width="176" height="66" rx="8" fill="#fff" /><rect x="102" y="312" width="4" height="66" rx="2" fill="#7b889c" /><text x="114" y="334" font-size="10.5" font-weight="600" fill="#0d1726" text-anchor="start">QA checklist</text><rect x="114" y="344" width="120" height="7" rx="3" fill="#dfe5ee" /><circle cx="122" cy="364" r="8" fill="#e2457a"/><text x="264" y="368" font-size="9" font-weight="600" fill="#7b889c" text-anchor="end">Fri</text><rect x="302" y="124" width="196" height="270" rx="10" fill="#f3f6fb" /><circle cx="318" cy="143" r="5" fill="#f29900"/><text x="330" y="147" font-size="11.5" font-weight="700" fill="#0d1726" text-anchor="start">In progress</text><text x="484" y="147" font-size="10" font-weight="600" fill="#7b889c" text-anchor="end">2</text><rect x="312" y="160" width="176" height="66" rx="8" fill="#fff" /><rect x="312" y="160" width="4" height="66" rx="2" fill="#f29900" /><text x="324" y="182" font-size="10.5" font-weight="600" fill="#0d1726" text-anchor="start">Stripe integration</text><rect x="324" y="192" width="120" height="7" rx="3" fill="#dfe5ee" /><circle cx="332" cy="212" r="8" fill="#7c5cff"/><text x="474" y="216" font-size="9" font-weight="600" fill="#7b889c" text-anchor="end">Today</text><rect x="312" y="236" width="176" height="66" rx="8" fill="#fff" /><rect x="312" y="236" width="4" height="66" rx="2" fill="#f29900" /><text x="324" y="258" font-size="10.5" font-weight="600" fill="#0d1726" text-anchor="start">Role permissions</text><rect x="324" y="268" width="120" height="7" rx="3" fill="#dfe5ee" /><circle cx="332" cy="288" r="8" fill="#0a7cff"/><text x="474" y="292" font-size="9" font-weight="600" fill="#7b889c" text-anchor="end">Tue</text><rect x="512" y="124" width="196" height="270" rx="10" fill="#f3f6fb" /><circle cx="528" cy="143" r="5" fill="#12a36b"/><text x="540" y="147" font-size="11.5" font-weight="700" fill="#0d1726" text-anchor="start">Done</text><text x="694" y="147" font-size="10" font-weight="600" fill="#7b889c" text-anchor="end">3</text><rect x="522" y="160" width="176" height="66" rx="8" fill="#fff" /><rect x="522" y="160" width="4" height="66" rx="2" fill="#12a36b" /><text x="534" y="182" font-size="10.5" font-weight="600" fill="#0d1726" text-anchor="start">Login &amp; auth</text><rect x="534" y="192" width="120" height="7" rx="3" fill="#dfe5ee" /><circle cx="542" cy="212" r="8" fill="#7c5cff"/><text x="684" y="216" font-size="9" font-weight="600" fill="#7b889c" text-anchor="end">Today</text><rect x="522" y="236" width="176" height="66" rx="8" fill="#fff" /><rect x="522" y="236" width="4" height="66" rx="2" fill="#12a36b" /><text x="534" y="258" font-size="10.5" font-weight="600" fill="#0d1726" text-anchor="start">Team dashboard</text><rect x="534" y="268" width="120" height="7" rx="3" fill="#dfe5ee" /><circle cx="542" cy="288" r="8" fill="#0a7cff"/><text x="684" y="292" font-size="9" font-weight="600" fill="#7b889c" text-anchor="end">Tue</text><rect x="522" y="312" width="176" height="66" rx="8" fill="#fff" /><rect x="522" y="312" width="4" height="66" rx="2" fill="#12a36b" /><text x="534" y="334" font-size="10.5" font-weight="600" fill="#0d1726" text-anchor="start">AfterPay setup</text><rect x="534" y="344" width="120" height="7" rx="3" fill="#dfe5ee" /><circle cx="542" cy="364" r="8" fill="#e2457a"/><text x="684" y="368" font-size="9" font-weight="600" fill="#7b889c" text-anchor="end">Fri</text>
</svg>